<svg width="32" height="32" viewBox="0 0 32 32" fill="none" xmlns="http://www.w3.org/2000/svg">
<path d="M31.9889 24.9247C31.9889 28.79 28.8678 31.9222 25.0246 31.9222H6.96425C3.12114 31.9222 0 28.79 0 24.9247V6.99757C0 3.13225 3.12114 0 6.96425 0H25.0357C28.8789 0 32 3.13225 32 6.99757V24.9247H31.9889Z" fill="black"/>
<path d="M17.0608 31.9889C17.0608 31.9222 17.072 31.8556 17.072 31.789C17.072 27.7792 17.072 23.7695 17.072 19.7487C17.072 19.7043 17.072 19.6487 17.072 19.5932C17.0053 19.5932 16.9498 19.5932 16.9053 19.5932C15.628 19.5932 14.3507 19.5932 13.0622 19.5932C12.8845 19.5932 12.8845 19.5932 12.8845 19.4266C12.8845 17.9271 12.8845 16.4276 12.8845 14.917C12.8845 14.7838 12.929 14.7504 13.0622 14.7504C14.3396 14.7504 15.6169 14.7504 16.9053 14.7504C16.9609 14.7504 17.0164 14.7504 17.0831 14.7504C17.0831 14.6949 17.0831 14.6505 17.0831 14.606C17.0831 13.362 17.072 12.1069 17.0942 10.8629C17.1053 9.86324 17.3052 8.8858 17.7384 7.97501C18.3382 6.7421 19.2712 5.85352 20.5374 5.33148C21.3816 4.97605 22.2702 4.80944 23.1921 4.83165C24.2361 4.84276 25.2913 4.8983 26.3354 4.93162C26.5353 4.94273 26.7242 4.97605 26.9241 4.98716C27.0352 4.98716 27.0685 5.03159 27.0685 5.14266C27.0685 5.76466 27.0685 6.38667 27.0685 7.00868C27.0685 7.74176 27.0685 8.47483 27.0685 9.20791C27.0685 9.3412 27.0352 9.37452 26.9019 9.37452C26.1022 9.37452 25.3135 9.36341 24.5138 9.37452C24.1473 9.38563 23.7807 9.41895 23.4364 9.4967C22.7589 9.6411 22.3479 10.0965 22.2146 10.774C22.1591 11.0517 22.1258 11.3294 22.1258 11.6071C22.1146 12.6289 22.1258 13.6397 22.1258 14.6616C22.1258 14.6949 22.1258 14.7171 22.1369 14.7726C22.1924 14.7726 22.259 14.7726 22.3146 14.7726C23.7807 14.7726 25.2469 14.7726 26.7131 14.7726C26.9019 14.7726 26.913 14.7726 26.8797 14.9504C26.7797 15.7501 26.6686 16.5498 26.5687 17.3495C26.4798 18.016 26.4021 18.6824 26.3243 19.3599C26.291 19.6154 26.3021 19.6154 26.0466 19.6154C24.8026 19.6154 23.5586 19.6154 22.3146 19.6154C22.259 19.6154 22.2146 19.6154 22.1369 19.6154C22.1369 19.6821 22.1369 19.7487 22.1369 19.8042C22.1369 23.7695 22.1369 27.7348 22.1369 31.7112C22.1369 31.8112 22.1369 31.9111 22.1369 32C20.4152 31.9889 18.738 31.9889 17.0608 31.9889Z" fill="white"/>
</svg>
