<svg width="32" height="32" viewBox="0 0 32 32" fill="none" xmlns="http://www.w3.org/2000/svg">
<path d="M32 24.9894C32 28.862 28.8828 32 25.0374 32H6.96259C3.11721 32 0 28.862 0 24.9894V7.01062C0 3.13804 3.11721 0 6.96259 0H25.0374C28.8828 0 32 3.13804 32 7.01062V24.9894Z" fill="black"/>
<path d="M20.818 28.0475H11.0923C7.3716 28.0475 4.32422 24.9944 4.32422 21.2667V10.8832C4.32422 7.15554 7.3716 4.10245 11.0923 4.10245H20.818C24.5387 4.10245 27.5861 7.15554 27.5861 10.8832V21.2667C27.5861 24.9994 24.5387 28.0475 20.818 28.0475ZM20.818 26.2586C22.1397 26.2586 23.3866 25.7389 24.3342 24.7895C25.2818 23.8401 25.8005 22.5909 25.8005 21.2667V10.8832C25.8005 9.55904 25.2818 8.30982 24.3342 7.36042C23.3866 6.41101 22.1397 5.89133 20.818 5.89133H11.0923C9.7706 5.89133 8.52372 6.41101 7.57609 7.36042C6.62846 8.30982 6.10975 9.55904 6.10975 10.8832V21.2667C6.10975 22.5909 6.62846 23.8401 7.57609 24.7895C8.52372 25.7389 9.7706 26.2586 11.0923 26.2586H20.818Z" fill="white"/>
<path d="M22.3939 15.985C22.3939 19.5278 19.5261 22.401 15.9899 22.401C12.4538 22.401 9.58594 19.5278 9.58594 15.985C9.58594 12.4422 12.4538 9.56901 15.9899 9.56901C19.5261 9.56901 22.3939 12.4372 22.3939 15.985ZM15.955 11.7876C13.6408 11.7876 11.7605 13.6714 11.7605 15.99C11.7605 18.3086 13.6408 20.1924 15.955 20.1924C18.2692 20.1924 20.1495 18.3086 20.1495 15.99C20.1495 13.6714 18.2742 11.7876 15.955 11.7876Z" fill="white"/>
<path d="M22.4986 10.9831C23.336 10.9831 24.0148 10.303 24.0148 9.4641C24.0148 8.62515 23.336 7.94505 22.4986 7.94505C21.6613 7.94505 20.9824 8.62515 20.9824 9.4641C20.9824 10.303 21.6613 10.9831 22.4986 10.9831Z" fill="white"/>
</svg>
