<svg width="456" height="122" viewBox="0 0 456 122" fill="none" xmlns="http://www.w3.org/2000/svg">
<path d="M408.497 68.7536H393.028V72.0473H389.742V68.7536V72.0473H411.783H408.497V68.7536Z" fill="black"/>
<path d="M389.742 49.8155V68.7536V72.0472H393.028V68.7536V53.2463H389.742V49.8155Z" fill="black"/>
<path d="M411.783 49.8155H389.742V53.2464H393.028H411.783V49.8155Z" fill="black"/>
<path d="M411.783 60.9314V64.225H408.497V68.7537V72.0473H411.783V60.9314Z" fill="black"/>
<path d="M411.783 60.9314H400.694V64.225H408.497H411.783V60.9314Z" fill="black"/>
<path d="M433.959 49.8155V72.0472H437.245V53.2463H433.959V49.8155Z" fill="black"/>
<path d="M452.715 49.8155H433.959V53.2464H437.245H452.715V49.8155Z" fill="black"/>
<path d="M452.715 49.8155V53.2463V60.9314H453.399V64.2249H452.715V72.0472H456V49.8155H452.715Z" fill="black"/>
<path d="M453.398 60.9314H452.714H437.245V64.225H452.714H453.398V60.9314Z" fill="black"/>
<path d="M367.565 49.8155H364.28V71.9101H367.565V49.8155Z" fill="black"/>
<path d="M338.817 68.7536H323.348V72.0473H320.062V68.7536V72.0473H342.103H338.817V68.7536Z" fill="black"/>
<path d="M320.062 49.8155V68.7536V72.0472H323.348V68.7536V53.2463H320.062V49.8155Z" fill="black"/>
<path d="M338.817 49.8155H320.062V53.2464H323.348H338.817V49.8155Z" fill="black"/>
<path d="M338.817 56.8144L337.038 58.5984L339.365 60.9314L342.103 58.1867H338.817V56.8144Z" fill="black"/>
<path d="M337.037 58.5984L334.71 60.9314L338.817 65.0484V63.676H342.102L339.364 60.9314L337.037 58.5984Z" fill="black"/>
<path d="M342.103 49.8155H338.817V53.2463V56.8144V58.1867H342.103V49.8155Z" fill="black"/>
<path d="M342.103 63.6761H338.817V65.0484V68.7537V72.0472H342.103V63.6761Z" fill="black"/>
<path d="M248.466 49.8155H197.677V53.1091H248.466V49.8155Z" fill="black"/>
<path d="M248.466 49.8155H245.18V99.6311H248.466V49.8155Z" fill="black"/>
<path d="M66.2573 68.7536H44.217V72.0473H66.2573V68.7536Z" fill="black"/>
<path d="M47.5025 49.8155H44.217V71.9101H47.5025V49.8155Z" fill="black"/>
<path d="M66.2573 49.8155H44.217V53.1091H66.2573V49.8155Z" fill="black"/>
<path d="M66.2575 49.8155H62.972V71.9101H66.2575V49.8155Z" fill="black"/>
<path d="M110.475 68.7536H88.4348V72.0473H110.475V68.7536Z" fill="black"/>
<path d="M91.7204 49.8155H88.4348V71.9101H91.7204V49.8155Z" fill="black"/>
<path d="M110.475 49.8155H88.4348V53.1091H110.475V49.8155Z" fill="black"/>
<path d="M110.475 60.9314H107.189V72.0473H110.475V60.9314Z" fill="black"/>
<path d="M110.475 60.9314H99.3865V64.225H110.475V60.9314Z" fill="black"/>
<path d="M22.0402 68.7536H0V72.0473H22.0402V68.7536Z" fill="black"/>
<path d="M3.2855 49.8155H0V71.9101H3.2855V49.8155Z" fill="black"/>
<path d="M135.8 49.8155H132.515V71.9101H135.8V49.8155Z" fill="black"/>
<path d="M154.555 49.8155H132.515V53.1091H154.555V49.8155Z" fill="black"/>
<path d="M154.555 49.8155H151.27V71.9101H154.555V49.8155Z" fill="black"/>
<path d="M151.955 60.9314H135.801V64.225H151.955V60.9314Z" fill="black"/>
<path d="M179.881 49.8155H176.595V53.2463V118.706V122H179.881H245.18H248.466V118.706V97.9842H245.18V118.706H179.881V53.2463H200.005V49.8155H179.881Z" fill="black"/>
<path d="M282.661 47.7933L280.338 50.1222L295.923 65.7452L298.246 63.4163L282.661 47.7933Z" fill="black"/>
<path d="M295.938 34.3921L280.353 50.0151L282.676 52.344L298.261 36.721L295.938 34.3921Z" fill="black"/>
<path d="M198.773 0V3.29359V96.4747V99.7683H202.058H295.011H298.296V96.4747V63.4016H295.011V96.4747H202.058V3.29359H295.011V36.7784H298.296V3.29359V0H198.773Z" fill="black"/>
</svg>
