<svg width="60" height="60" viewBox="0 0 60 60" fill="none" xmlns="http://www.w3.org/2000/svg">
<path d="M34.9501 24.825H11.8501V26.325H34.9501V24.825Z" fill="black"/>
<path d="M34.875 24.825H33.375V47.4H34.875V24.825Z" fill="black"/>
<path fill-rule="evenodd" clip-rule="evenodd" d="M3.75 56.025H33.375V46.65H34.875V56.025V57.525H33.375H3.75H2.25V56.025V26.325V24.825H3.75H12.9V26.325H3.75V56.025Z" fill="black"/>
<path d="M50.3863 23.8866L49.3257 24.9472L56.432 32.0536L57.4927 30.9929L50.3863 23.8866Z" fill="black"/>
<path d="M56.4022 17.824L49.2959 24.9304L50.3565 25.991L57.4629 18.8847L56.4022 17.824Z" fill="black"/>
<path fill-rule="evenodd" clip-rule="evenodd" d="M57.4498 30.975H55.9498V45.975H13.7998V3.75H55.9498V18.9H57.4498V3.75V2.25H55.9498H13.7998H12.2998V3.75V45.975V47.475H13.7998H55.9498H57.4498V45.975V30.975Z" fill="black"/>
</svg>
