<svg width="45" height="32" viewBox="0 0 45 32" fill="none" xmlns="http://www.w3.org/2000/svg">
<path d="M44.3103 5.81539C43.452 2.36923 41.8426 1.04615 38.8845 0.56923C37.1832 0.323076 28.9833 0 22.4847 0H22.5153C16.0167 0 7.81676 0.323076 6.11546 0.56923C3.15736 1.04615 1.54802 2.36923 0.689714 5.81539C0.398501 6.96923 0 13.3077 0 15.7385V16.2615C0 18.6769 0.398501 25.0154 0.689714 26.1846C1.54802 29.6308 3.15736 30.9538 6.11546 31.4308C7.81676 31.6769 16.0167 32 22.5153 32H22.4847C28.9833 32 37.1832 31.6769 38.8845 31.4308C41.8426 30.9538 43.452 29.6308 44.3103 26.1846C44.6015 25.0308 45 18.6923 45 16.2615V15.7385C45 13.3231 44.6015 6.96923 44.3103 5.81539Z" fill="black"/>
<path d="M17.8252 9.52308L29.7802 15.7846L17.8252 22.3385V9.52308Z" fill="white"/>
</svg>
